<mxfile host="app.diagrams.net" modified="2024-07-17T02:22:23.907Z" agent="Mozilla/5.0 (Windows NT 10.0; Win64; x64) AppleWebKit/537.36 (KHTML, like Gecko) Chrome/126.0.0.0 Safari/537.36" etag="YGy_1Y2djUyg4Tgcl11c" version="24.6.5" type="device">
  <diagram name="Page-1" id="kpdJ3AEXgp6CBIsaOtXn">
    <mxGraphModel dx="1050" dy="1683" grid="1" gridSize="10" guides="1" tooltips="1" connect="1" arrows="1" fold="1" page="1" pageScale="1" pageWidth="850" pageHeight="1100" math="0" shadow="0">
      <root>
        <mxCell id="0" />
        <mxCell id="1" parent="0" />
        <mxCell id="YO9Bbj-3PHo_U7VNNRIM-1" value="" style="rounded=0;whiteSpace=wrap;html=1;fillColor=#dae8fc;gradientColor=#7ea6e0;strokeColor=#6c8ebf;" vertex="1" parent="1">
          <mxGeometry x="80" y="80" width="680" height="480" as="geometry" />
        </mxCell>
        <mxCell id="YO9Bbj-3PHo_U7VNNRIM-8" style="edgeStyle=orthogonalEdgeStyle;rounded=0;orthogonalLoop=1;jettySize=auto;html=1;entryX=0;entryY=0.5;entryDx=0;entryDy=0;flowAnimation=1;" edge="1" parent="1" source="YO9Bbj-3PHo_U7VNNRIM-2" target="YO9Bbj-3PHo_U7VNNRIM-5">
          <mxGeometry relative="1" as="geometry" />
        </mxCell>
        <mxCell id="YO9Bbj-3PHo_U7VNNRIM-2" value="" style="rounded=0;whiteSpace=wrap;html=1;fillColor=#d5e8d4;gradientColor=#97d077;strokeColor=#82b366;" vertex="1" parent="1">
          <mxGeometry x="120" y="230" width="570" height="150" as="geometry" />
        </mxCell>
        <mxCell id="YO9Bbj-3PHo_U7VNNRIM-3" value="&lt;b&gt;Jenkins&lt;/b&gt;" style="text;html=1;align=center;verticalAlign=middle;resizable=0;points=[];autosize=1;strokeColor=none;fillColor=none;" vertex="1" parent="1">
          <mxGeometry x="370" y="80" width="70" height="30" as="geometry" />
        </mxCell>
        <mxCell id="YO9Bbj-3PHo_U7VNNRIM-4" value="&lt;b&gt;Backend Jenkins Pipeline&lt;/b&gt;" style="text;html=1;align=center;verticalAlign=middle;resizable=0;points=[];autosize=1;strokeColor=none;fillColor=none;" vertex="1" parent="1">
          <mxGeometry x="320" y="230" width="170" height="30" as="geometry" />
        </mxCell>
        <mxCell id="YO9Bbj-3PHo_U7VNNRIM-5" value="&lt;b&gt;Shared Library&lt;/b&gt;" style="rounded=1;whiteSpace=wrap;html=1;fillColor=#f8cecc;gradientColor=#ea6b66;strokeColor=#b85450;" vertex="1" parent="1">
          <mxGeometry x="550" y="100" width="150" height="70" as="geometry" />
        </mxCell>
        <mxCell id="YO9Bbj-3PHo_U7VNNRIM-6" value="" style="verticalLabelPosition=bottom;html=1;verticalAlign=top;align=center;strokeColor=none;fillColor=#00BEF2;shape=mxgraph.azure.github_code;pointerEvents=1;" vertex="1" parent="1">
          <mxGeometry x="577.5" y="-50" width="95" height="80" as="geometry" />
        </mxCell>
        <mxCell id="YO9Bbj-3PHo_U7VNNRIM-7" style="edgeStyle=orthogonalEdgeStyle;rounded=0;orthogonalLoop=1;jettySize=auto;html=1;entryX=0.5;entryY=1;entryDx=0;entryDy=0;entryPerimeter=0;flowAnimation=1;strokeWidth=2;" edge="1" parent="1" source="YO9Bbj-3PHo_U7VNNRIM-5" target="YO9Bbj-3PHo_U7VNNRIM-6">
          <mxGeometry relative="1" as="geometry" />
        </mxCell>
        <mxCell id="YO9Bbj-3PHo_U7VNNRIM-9" value="&lt;b&gt;GitHub&lt;/b&gt;" style="text;html=1;align=center;verticalAlign=middle;resizable=0;points=[];autosize=1;strokeColor=none;fillColor=none;" vertex="1" parent="1">
          <mxGeometry x="672.5" y="-20" width="60" height="30" as="geometry" />
        </mxCell>
      </root>
    </mxGraphModel>
  </diagram>
</mxfile>
